<mxfile host="app.diagrams.net" agent="Mozilla/5.0 (Windows NT 10.0; Win64; x64) AppleWebKit/537.36 (KHTML, like Gecko) Chrome/137.0.0.0 Safari/537.36" version="27.1.1">
  <diagram name="UC1: Купівля квитка" id="0">
    <mxGraphModel dx="2827" dy="1980" grid="1" gridSize="10" guides="1" tooltips="1" connect="1" arrows="1" fold="1" page="1" pageScale="1" pageWidth="827" pageHeight="1169" math="0" shadow="0">
      <root>
        <mxCell id="0" />
        <mxCell id="1" parent="0" />
        <mxCell id="P1" value="Пасажир" style="swimlane" parent="1" vertex="1" collapsed="1">
          <mxGeometry x="-260" y="-20" width="90" height="30" as="geometry">
            <mxRectangle x="-250" y="300" width="140" height="460" as="alternateBounds" />
          </mxGeometry>
        </mxCell>
        <mxCell id="P2" value="Вебінтерфейс" style="swimlane" parent="1" vertex="1" collapsed="1">
          <mxGeometry x="70" y="-20" width="120" height="30" as="geometry">
            <mxRectangle x="200" y="570" width="140" height="450" as="alternateBounds" />
          </mxGeometry>
        </mxCell>
        <mxCell id="P3" value="Система автовокзалу" style="swimlane" parent="1" vertex="1" collapsed="1">
          <mxGeometry x="570" y="-20" width="160" height="30" as="geometry">
            <mxRectangle x="470" y="-30" width="140" height="460" as="alternateBounds" />
          </mxGeometry>
        </mxCell>
        <mxCell id="P4" value="Платіжна система" style="swimlane" parent="1" vertex="1" collapsed="1">
          <mxGeometry x="340" y="-20" width="140" height="30" as="geometry">
            <mxRectangle x="870" y="630" width="140" height="450" as="alternateBounds" />
          </mxGeometry>
        </mxCell>
        <mxCell id="P5" value="База даних" style="swimlane" parent="1" vertex="1" collapsed="1">
          <mxGeometry x="960" y="-30" width="100" height="30" as="geometry">
            <mxRectangle x="1090" y="480" width="140" height="450" as="alternateBounds" />
          </mxGeometry>
        </mxCell>
        <mxCell id="m1" value="Обрати напрямок, дату, місце" style="endArrow=block;fontSize=13;" parent="1" edge="1">
          <mxGeometry relative="1" as="geometry">
            <mxPoint x="-220" y="325" as="sourcePoint" />
            <mxPoint x="130" y="320" as="targetPoint" />
          </mxGeometry>
        </mxCell>
        <mxCell id="m2" value="Відображення доступних рейсів" style="endArrow=block;fontSize=13;" parent="1" edge="1">
          <mxGeometry x="-0.0909" relative="1" as="geometry">
            <mxPoint x="130" y="280" as="sourcePoint" />
            <mxPoint x="-220" y="280" as="targetPoint" />
            <mxPoint as="offset" />
          </mxGeometry>
        </mxCell>
        <mxCell id="m3" value="Введення особистих даних" style="endArrow=block;fontSize=13;" parent="1" edge="1">
          <mxGeometry x="-0.0625" relative="1" as="geometry">
            <mxPoint x="-210" y="220" as="sourcePoint" />
            <mxPoint x="130" y="220" as="targetPoint" />
            <mxPoint as="offset" />
          </mxGeometry>
        </mxCell>
        <mxCell id="m4" value="Підтвердження → до оплати" style="endArrow=block;fontSize=13;" parent="1" edge="1">
          <mxGeometry x="-0.0908" y="25" relative="1" as="geometry">
            <mxPoint x="130" y="390" as="sourcePoint" />
            <mxPoint x="660" y="390" as="targetPoint" />
            <mxPoint as="offset" />
          </mxGeometry>
        </mxCell>
        <mxCell id="m5" value="Надіслати запит до платіжної системи" style="endArrow=block;fontSize=13;" parent="1" edge="1">
          <mxGeometry y="-20" relative="1" as="geometry">
            <mxPoint x="660" y="160" as="sourcePoint" />
            <mxPoint x="400" y="160" as="targetPoint" />
            <mxPoint as="offset" />
          </mxGeometry>
        </mxCell>
        <mxCell id="m6" value="Підтвердження транзакції" style="endArrow=block;fontSize=13;" parent="1" edge="1">
          <mxGeometry y="20" relative="1" as="geometry">
            <mxPoint x="400" y="280" as="sourcePoint" />
            <mxPoint x="660" y="280" as="targetPoint" />
            <mxPoint as="offset" />
          </mxGeometry>
        </mxCell>
        <mxCell id="m7" value="Генерація квитка (PDF)" style="endArrow=block;strokeColor=default;fontSize=14;" parent="1" edge="1">
          <mxGeometry x="0.0286" y="-20" relative="1" as="geometry">
            <mxPoint x="660" y="240" as="sourcePoint" />
            <mxPoint x="1010" y="240" as="targetPoint" />
            <mxPoint as="offset" />
          </mxGeometry>
        </mxCell>
        <mxCell id="m8" value="Оновити розклад / історію" style="endArrow=block;strokeColor=default;fontSize=14;" parent="1" edge="1">
          <mxGeometry x="0.0286" y="-20" relative="1" as="geometry">
            <mxPoint x="660" y="100" as="sourcePoint" />
            <mxPoint x="1010" y="100" as="targetPoint" />
            <mxPoint as="offset" />
          </mxGeometry>
        </mxCell>
        <mxCell id="m9" value="Надіслати квиток на email/app" style="endArrow=block;fontSize=14;" parent="1" edge="1">
          <mxGeometry relative="1" as="geometry">
            <mxPoint x="660" y="70" as="sourcePoint" />
            <mxPoint x="-215" y="70" as="targetPoint" />
          </mxGeometry>
        </mxCell>
        <mxCell id="Dn14sdkFpDHbzdm3t36y-4" value="" style="endArrow=none;dashed=1;html=1;dashPattern=1 3;strokeWidth=2;rounded=0;" edge="1" parent="1">
          <mxGeometry width="50" height="50" relative="1" as="geometry">
            <mxPoint x="1009.38" y="420" as="sourcePoint" />
            <mxPoint x="1009.38" as="targetPoint" />
          </mxGeometry>
        </mxCell>
        <mxCell id="Dn14sdkFpDHbzdm3t36y-8" value="" style="endArrow=none;dashed=1;html=1;dashPattern=1 3;strokeWidth=2;rounded=0;" edge="1" parent="1">
          <mxGeometry width="50" height="50" relative="1" as="geometry">
            <mxPoint x="660" y="440" as="sourcePoint" />
            <mxPoint x="660" y="10" as="targetPoint" />
          </mxGeometry>
        </mxCell>
        <mxCell id="Dn14sdkFpDHbzdm3t36y-9" value="" style="endArrow=none;dashed=1;html=1;dashPattern=1 3;strokeWidth=2;rounded=0;" edge="1" parent="1">
          <mxGeometry width="50" height="50" relative="1" as="geometry">
            <mxPoint x="400" y="320" as="sourcePoint" />
            <mxPoint x="400" y="10" as="targetPoint" />
          </mxGeometry>
        </mxCell>
        <mxCell id="Dn14sdkFpDHbzdm3t36y-10" value="" style="endArrow=none;dashed=1;html=1;dashPattern=1 3;strokeWidth=2;rounded=0;" edge="1" parent="1">
          <mxGeometry width="50" height="50" relative="1" as="geometry">
            <mxPoint x="129.37" y="430" as="sourcePoint" />
            <mxPoint x="129.37" as="targetPoint" />
          </mxGeometry>
        </mxCell>
        <mxCell id="Dn14sdkFpDHbzdm3t36y-11" value="" style="endArrow=none;dashed=1;html=1;dashPattern=1 3;strokeWidth=2;rounded=0;" edge="1" parent="1">
          <mxGeometry width="50" height="50" relative="1" as="geometry">
            <mxPoint x="-215.62" y="440" as="sourcePoint" />
            <mxPoint x="-215.62" y="10" as="targetPoint" />
          </mxGeometry>
        </mxCell>
      </root>
    </mxGraphModel>
  </diagram>
</mxfile>
